<svg width="42" height="42" viewBox="0 0 42 42" fill="none" xmlns="http://www.w3.org/2000/svg">
<rect x="0.5" y="0.5" width="41" height="41" rx="20.5" stroke="white" stroke-opacity="0.2"/>
<circle cx="21.5" cy="0.5" r="0.5" fill="#ADFF00"/>
<circle cx="0.5" cy="21.5" r="0.5" fill="#ADFF00"/>
<circle cx="41.5" cy="21.5" r="0.5" fill="#ADFF00"/>
<circle cx="21.5" cy="41.5" r="0.5" fill="#ADFF00"/>
<g filter="url(#filter0_b_4075_5473)">
<circle cx="21.0001" cy="21" r="16" fill="white" fill-opacity="0.1"/>
<circle cx="21.0001" cy="21" r="15.5" stroke="#ADFF00"/>
</g>
<path d="M15.375 26.7372C15.1979 26.7372 15.0495 26.6773 14.9297 26.5574C14.8099 26.4376 14.75 26.2891 14.75 26.1119C14.75 25.9348 14.8099 25.7864 14.9297 25.6667C15.0495 25.5471 15.1979 25.4872 15.375 25.4872H16.2564V19.2692C16.2564 18.1485 16.6023 17.1576 17.2941 16.2965C17.9858 15.4354 18.8739 14.8846 19.9583 14.6443V14.125C19.9583 13.8357 20.0595 13.5897 20.2619 13.3872C20.4642 13.1847 20.71 13.0834 20.999 13.0834C21.2881 13.0834 21.5342 13.1847 21.7371 13.3872C21.9401 13.5897 22.0416 13.8357 22.0416 14.125V14.6443C23.126 14.8846 24.0141 15.4354 24.7059 16.2965C25.3977 17.1576 25.7435 18.1485 25.7435 19.2692V25.4872H26.625C26.802 25.4872 26.9505 25.5471 27.0703 25.667C27.1901 25.7868 27.25 25.9353 27.25 26.1125C27.25 26.2896 27.1901 26.4381 27.0703 26.5577C26.9505 26.6774 26.802 26.7372 26.625 26.7372H15.375ZM20.9986 29.0769C20.5839 29.0769 20.2294 28.9294 19.9351 28.6344C19.6408 28.3394 19.4936 27.9848 19.4936 27.5705H22.5064C22.5064 27.9861 22.3587 28.3411 22.0635 28.6354C21.7682 28.9298 21.4132 29.0769 20.9986 29.0769ZM17.5064 25.4872H24.4936V19.2692C24.4936 18.3045 24.1525 17.481 23.4703 16.7989C22.7882 16.1167 21.9647 15.7756 21 15.7756C20.0352 15.7756 19.2118 16.1167 18.5296 16.7989C17.8475 17.481 17.5064 18.3045 17.5064 19.2692V25.4872Z" fill="#ADFF00"/>
<defs>
<filter id="filter0_b_4075_5473" x="-6.99988" y="-7" width="56" height="56" filterUnits="userSpaceOnUse" color-interpolation-filters="sRGB">
<feFlood flood-opacity="0" result="BackgroundImageFix"/>
<feGaussianBlur in="BackgroundImageFix" stdDeviation="6"/>
<feComposite in2="SourceAlpha" operator="in" result="effect1_backgroundBlur_4075_5473"/>
<feBlend mode="normal" in="SourceGraphic" in2="effect1_backgroundBlur_4075_5473" result="shape"/>
</filter>
</defs>
</svg>
