<svg width="24" height="24" viewBox="0 0 24 24" fill="none" xmlns="http://www.w3.org/2000/svg">
<g id="ic-add">
<path id="Vector" d="M11.25 12.75H6.25003C6.03753 12.75 5.85941 12.6781 5.71566 12.5343C5.57191 12.3905 5.50003 12.2123 5.50003 11.9997C5.50003 11.7871 5.57191 11.609 5.71566 11.4654C5.85941 11.3218 6.03753 11.25 6.25003 11.25H11.25V6.25003C11.25 6.03753 11.3219 5.85941 11.4657 5.71566C11.6095 5.57191 11.7877 5.50003 12.0003 5.50003C12.2129 5.50003 12.391 5.57191 12.5346 5.71566C12.6782 5.85941 12.75 6.03753 12.75 6.25003V11.25H17.75C17.9625 11.25 18.1406 11.3219 18.2844 11.4657C18.4281 11.6095 18.5 11.7877 18.5 12.0003C18.5 12.2129 18.4281 12.391 18.2844 12.5346C18.1406 12.6782 17.9625 12.75 17.75 12.75H12.75V17.75C12.75 17.9625 12.6781 18.1406 12.5343 18.2844C12.3905 18.4281 12.2123 18.5 11.9997 18.5C11.7871 18.5 11.609 18.4281 11.4654 18.2844C11.3218 18.1406 11.25 17.9625 11.25 17.75V12.75Z" fill="#444444"/>
</g>
</svg>
