<svg width="25" height="24" viewBox="0 0 25 24" fill="none" xmlns="http://www.w3.org/2000/svg">
<path d="M5.00002 18.8846V17.3846H6.80772V9.92305C6.80772 9.45638 6.86413 8.99278 6.97694 8.53225C7.08976 8.0717 7.25899 7.63274 7.48462 7.21538L8.61922 8.34998C8.51537 8.60421 8.43748 8.86242 8.38554 9.1246C8.33363 9.38677 8.30767 9.65292 8.30767 9.92305V17.3846H15.5847L2.53467 4.37308L3.58847 3.31925L21.4307 21.1615L20.3769 22.2153L17.0154 18.8846H5.00002ZM18.1923 15.0538L16.6923 13.5539V9.92305C16.6923 8.76535 16.283 7.77721 15.4644 6.95863C14.6458 6.14003 13.6577 5.73073 12.5 5.73073C12.0058 5.73073 11.5307 5.81182 11.0746 5.974C10.6184 6.13618 10.2077 6.37946 9.84227 6.70383L8.75769 5.61923C9.11026 5.31409 9.49583 5.05352 9.91442 4.8375C10.333 4.62147 10.7782 4.46666 11.25 4.37308V3.75C11.25 3.40278 11.3714 3.10765 11.6143 2.8646C11.8571 2.62153 12.152 2.5 12.4989 2.5C12.8458 2.5 13.141 2.62153 13.3846 2.8646C13.6282 3.10765 13.75 3.40278 13.75 3.75V4.37308C15.0577 4.64871 16.125 5.30479 16.9519 6.34133C17.7788 7.37786 18.1923 8.57177 18.1923 9.92305V15.0538ZM12.4983 21.6923C12.0007 21.6923 11.5753 21.5153 11.2221 21.1613C10.8689 20.8073 10.6923 20.3817 10.6923 19.8846H14.3077C14.3077 20.3833 14.1305 20.8093 13.7762 21.1625C13.4218 21.5157 12.9959 21.6923 12.4983 21.6923Z" fill="#ACACAC"/>
</svg>
