<svg width="20" height="20" viewBox="0 0 20 20" fill="none" xmlns="http://www.w3.org/2000/svg">
<path d="M4.375 15.7372C4.19792 15.7372 4.04948 15.6773 3.92969 15.5574C3.8099 15.4376 3.75 15.2891 3.75 15.1119C3.75 14.9348 3.8099 14.7864 3.92969 14.6667C4.04948 14.5471 4.19792 14.4872 4.375 14.4872H5.25642V8.26925C5.25642 7.14853 5.6023 6.15761 6.29406 5.2965C6.98584 4.43539 7.87393 3.88465 8.95833 3.64427V3.12504C8.95833 2.83569 9.05951 2.58975 9.26188 2.38721C9.46424 2.18465 9.70996 2.08337 9.99904 2.08337C10.2881 2.08337 10.5342 2.18465 10.7371 2.38721C10.9401 2.58975 11.0416 2.83569 11.0416 3.12504V3.64427C12.126 3.88465 13.0141 4.43539 13.7059 5.2965C14.3977 6.15761 14.7435 7.14853 14.7435 8.26925V14.4872H15.625C15.802 14.4872 15.9505 14.5471 16.0703 14.667C16.1901 14.7868 16.25 14.9353 16.25 15.1125C16.25 15.2896 16.1901 15.4381 16.0703 15.5577C15.9505 15.6774 15.802 15.7372 15.625 15.7372H4.375ZM9.99856 18.0769C9.58391 18.0769 9.22942 17.9294 8.93508 17.6344C8.64075 17.3394 8.49358 16.9848 8.49358 16.5705H11.5064C11.5064 16.9861 11.3587 17.3411 11.0635 17.6354C10.7682 17.9298 10.4132 18.0769 9.99856 18.0769ZM6.50638 14.4872H13.4936V8.26925C13.4936 7.3045 13.1525 6.48105 12.4703 5.7989C11.7882 5.11673 10.9647 4.77565 9.99998 4.77565C9.03523 4.77565 8.21178 5.11673 7.52962 5.7989C6.84746 6.48105 6.50638 7.3045 6.50638 8.26925V14.4872Z" fill="#EEEEEE"/>
</svg>
