<svg width="180" height="56" viewBox="0 0 180 56" fill="none" xmlns="http://www.w3.org/2000/svg">
<mask id="path-1-inside-1_4089_7665" fill="white">
<path fill-rule="evenodd" clip-rule="evenodd" d="M0 0H160L170 10L180 20V56H20L10 46L0 36V0Z"/>
</mask>
<path fill-rule="evenodd" clip-rule="evenodd" d="M0 0H160L170 10L180 20V56H20L10 46L0 36V0Z" fill="black" fill-opacity="0.3"/>
<path d="M160 0L160.707 -0.707107L160.414 -1H160V0ZM0 0V-1H-1V0H0ZM180 20H181V19.5858L180.707 19.2929L180 20ZM180 56V57H181V56H180ZM20 56L19.2929 56.7071L19.5858 57H20V56ZM0 36H-1V36.4142L-0.707107 36.7071L0 36ZM160 -1H0V1H160V-1ZM170.707 9.29289L160.707 -0.707107L159.293 0.707107L169.293 10.7071L170.707 9.29289ZM180.707 19.2929L170.707 9.29289L169.293 10.7071L179.293 20.7071L180.707 19.2929ZM181 56V20H179V56H181ZM20 57H180V55H20V57ZM9.29289 46.7071L19.2929 56.7071L20.7071 55.2929L10.7071 45.2929L9.29289 46.7071ZM-0.707107 36.7071L9.29289 46.7071L10.7071 45.2929L0.707107 35.2929L-0.707107 36.7071ZM-1 0V36H1V0H-1Z" fill="white" mask="url(#path-1-inside-1_4089_7665)"/>
</svg>
