<svg width="16" height="16" viewBox="0 0 16 16" fill="none" xmlns="http://www.w3.org/2000/svg">
<g id="ic-close">
<path id="Vector" d="M7.99901 8.70352L4.61695 12.0856C4.52465 12.1779 4.40863 12.2251 4.26888 12.2272C4.12915 12.2294 4.01099 12.1822 3.91441 12.0856C3.81783 11.989 3.76953 11.8719 3.76953 11.7343C3.76953 11.5967 3.81783 11.4796 3.91441 11.383L7.29646 8.00097L3.91441 4.6189C3.8221 4.5266 3.77488 4.41058 3.77275 4.27083C3.7706 4.1311 3.81783 4.01295 3.91441 3.91637C4.01099 3.81978 4.12808 3.77148 4.26568 3.77148C4.40328 3.77148 4.52037 3.81978 4.61695 3.91637L7.99901 7.29842L11.3811 3.91637C11.4734 3.82406 11.5894 3.77683 11.7291 3.7747C11.8689 3.77256 11.987 3.81978 12.0836 3.91637C12.1802 4.01295 12.2285 4.13003 12.2285 4.26763C12.2285 4.40523 12.1802 4.52232 12.0836 4.6189L8.70156 8.00097L12.0836 11.383C12.1759 11.4753 12.2231 11.5914 12.2253 11.7311C12.2274 11.8708 12.1802 11.989 12.0836 12.0856C11.987 12.1822 11.8699 12.2305 11.7323 12.2305C11.5947 12.2305 11.4777 12.1822 11.3811 12.0856L7.99901 8.70352Z" fill="#6B6B6B"/>
</g>
</svg>
