<svg width="48" height="48" viewBox="0 0 48 48" fill="none" xmlns="http://www.w3.org/2000/svg">
<path d="M14.587 24.0035L20.6752 17.9036C20.8821 17.6963 20.988 17.4357 20.9928 17.1217C20.9976 16.8078 20.8917 16.5424 20.6752 16.3255C20.4586 16.1085 20.1961 16 19.8876 16C19.5791 16 19.3165 16.1085 19.1 16.3255L12.3823 23.056C12.2424 23.1962 12.1437 23.344 12.0862 23.4996C12.0287 23.6551 12 23.823 12 24.0035C12 24.184 12.0287 24.352 12.0862 24.5075C12.1437 24.663 12.2424 24.8109 12.3823 24.951L19.1 31.6816C19.3069 31.889 19.5671 31.9951 19.8804 31.9998C20.1937 32.0047 20.4586 31.8986 20.6752 31.6816C20.8917 31.4646 21 31.2016 21 30.8925C21 30.5834 20.8917 30.3204 20.6752 30.1034L14.587 24.0035Z" fill="#444444"/>
</svg>
