<svg width="48" height="48" viewBox="0 0 48 48" fill="none" xmlns="http://www.w3.org/2000/svg">
<path d="M20 14.5H28C36.2843 14.5 43 21.2157 43 29.5V37.5C43 41.366 39.866 44.5 36 44.5H12C8.13401 44.5 5 41.366 5 37.5V29.5C5 21.2157 11.7157 14.5 20 14.5Z" fill="#121212" stroke="#ADFF00" stroke-width="2"/>
<path d="M20 18H28C34.3513 18 39.5 23.1487 39.5 29.5V35.5C39.5 38.5376 37.0376 41 34 41H14C10.9624 41 8.5 38.5376 8.5 35.5V29.5C8.5 23.1487 13.6487 18 20 18Z" stroke="#ADFF00"/>
<path fill-rule="evenodd" clip-rule="evenodd" d="M24 4.5C22.3431 4.5 21 5.84315 21 7.5C21 8.80622 21.8348 9.91746 23 10.3293V13.5H25V10.3293C26.1652 9.91746 27 8.80622 27 7.5C27 5.84315 25.6569 4.5 24 4.5Z" fill="#ADFF00"/>
<path fill-rule="evenodd" clip-rule="evenodd" d="M3 27.5C1.89543 27.5 1 28.3954 1 29.5V29.7676C0.402199 30.1134 0 30.7597 0 31.5V35.5C0 36.2403 0.402199 36.8866 1 37.2324V37.5C1 38.6046 1.89543 39.5 3 39.5H5V27.5H3Z" fill="#ADFF00"/>
<path fill-rule="evenodd" clip-rule="evenodd" d="M45 27.5C46.1046 27.5 47 28.3954 47 29.5V29.7676C47.5978 30.1134 48 30.7597 48 31.5V35.5C48 36.2403 47.5978 36.8866 47 37.2324V37.5C47 38.6046 46.1046 39.5 45 39.5H43V27.5H45Z" fill="#ADFF00"/>
<circle cx="17.5" cy="27" r="1.5" fill="#ADFF00"/>
<circle cx="30.5" cy="27" r="1.5" fill="#ADFF00"/>
<path d="M19 31.5C19.5 32.1667 21.2 33.5 24 33.5C26.8 33.5 28.5 32.1667 29 31.5" stroke="#ADFF00" stroke-width="2" stroke-linecap="round"/>
<g clip-path="url(#clip0_4596_9943)">
<path fill-rule="evenodd" clip-rule="evenodd" d="M16.5487 2.88174C17.0282 3.15575 17.1948 3.76661 16.9208 4.24613L15.7757 6.24999H16.0525C16.7959 6.24999 17.2794 7.0323 16.947 7.6972L14.947 11.6972C14.7 12.1912 14.0993 12.3914 13.6053 12.1444C13.1113 11.8974 12.9111 11.2968 13.1581 10.8028L14.4345 8.24999H14.0525C13.2847 8.24999 12.8033 7.4205 13.1843 6.75385L15.1843 3.25385C15.4583 2.77433 16.0691 2.60773 16.5487 2.88174Z" fill="#ADFF00"/>
</g>
<g clip-path="url(#clip1_4596_9943)">
<path fill-rule="evenodd" clip-rule="evenodd" d="M34.5487 2.88174C35.0282 3.15575 35.1948 3.76661 34.9208 4.24613L33.7757 6.24999H34.0525C34.7959 6.24999 35.2794 7.0323 34.947 7.6972L32.947 11.6972C32.7 12.1912 32.0993 12.3914 31.6053 12.1444C31.1113 11.8974 30.9111 11.2968 31.1581 10.8028L32.4345 8.24999H32.0525C31.2847 8.24999 30.8033 7.4205 31.1843 6.75385L33.1843 3.25385C33.4583 2.77433 34.0691 2.60773 34.5487 2.88174Z" fill="#ADFF00"/>
</g>
<defs>
<clipPath id="clip0_4596_9943">
<rect width="6" height="10" fill="white" transform="translate(12 2.5)"/>
</clipPath>
<clipPath id="clip1_4596_9943">
<rect width="6" height="10" fill="white" transform="translate(30 2.5)"/>
</clipPath>
</defs>
</svg>
