<svg width="16" height="16" viewBox="0 0 16 16" fill="none" xmlns="http://www.w3.org/2000/svg">
<path d="M8.75 7.99978C8.75 8.14811 8.70601 8.29312 8.6236 8.41645C8.54119 8.53979 8.42406 8.63592 8.28701 8.69268C8.14997 8.74945 7.99917 8.7643 7.85368 8.73536C7.7082 8.70643 7.57456 8.63499 7.46967 8.5301C7.36478 8.42522 7.29335 8.29158 7.26441 8.14609C7.23547 8.00061 7.25032 7.84981 7.30709 7.71276C7.36386 7.57572 7.45999 7.45858 7.58332 7.37617C7.70666 7.29376 7.85166 7.24978 8 7.24978C8.19891 7.24978 8.38968 7.32879 8.53033 7.46944C8.67098 7.6101 8.75 7.80086 8.75 7.99978ZM5.25 7.24978C5.10166 7.24978 4.95666 7.29376 4.83332 7.37617C4.70999 7.45858 4.61386 7.57572 4.55709 7.71276C4.50032 7.84981 4.48547 8.00061 4.51441 8.14609C4.54335 8.29158 4.61478 8.42522 4.71967 8.5301C4.82456 8.63499 4.9582 8.70643 5.10368 8.73536C5.24917 8.7643 5.39997 8.74945 5.53701 8.69268C5.67406 8.63592 5.79119 8.53979 5.8736 8.41645C5.95601 8.29312 6 8.14811 6 7.99978C6 7.80086 5.92098 7.6101 5.78033 7.46944C5.63968 7.32879 5.44891 7.24978 5.25 7.24978ZM10.75 7.24978C10.6017 7.24978 10.4567 7.29376 10.3333 7.37617C10.21 7.45858 10.1139 7.57572 10.0571 7.71276C10.0003 7.84981 9.98547 8.00061 10.0144 8.14609C10.0433 8.29158 10.1148 8.42522 10.2197 8.5301C10.3246 8.63499 10.4582 8.70643 10.6037 8.73536C10.7492 8.7643 10.9 8.74945 11.037 8.69268C11.1741 8.63592 11.2912 8.53979 11.3736 8.41645C11.456 8.29312 11.5 8.14811 11.5 7.99978C11.5 7.80086 11.421 7.6101 11.2803 7.46944C11.1397 7.32879 10.9489 7.24978 10.75 7.24978ZM14.5 7.99978C14.5002 9.12198 14.2099 10.2251 13.6574 11.2019C13.1048 12.1786 12.3087 12.9956 11.3467 13.5734C10.3847 14.1512 9.28942 14.4701 8.16759 14.499C7.04575 14.528 5.93554 14.266 4.945 13.7385L2.81687 14.4479C2.64068 14.5067 2.4516 14.5152 2.27083 14.4725C2.09006 14.4299 1.92474 14.3377 1.79341 14.2064C1.66207 14.075 1.56991 13.9097 1.52725 13.7289C1.48459 13.5482 1.49312 13.3591 1.55187 13.1829L2.26125 11.0548C1.79759 10.183 1.53862 9.21714 1.504 8.23038C1.46937 7.24362 1.66 6.26194 2.06142 5.35986C2.46283 4.45777 3.06448 3.65899 3.8207 3.02414C4.57691 2.3893 5.46782 1.93507 6.42579 1.69595C7.38376 1.45682 8.38362 1.43908 9.34948 1.64407C10.3153 1.84906 11.2218 2.27139 12.0001 2.87901C12.7783 3.48662 13.4079 4.26356 13.8411 5.15083C14.2743 6.03811 14.4996 7.01241 14.5 7.99978ZM13.5 7.99978C13.4998 7.1561 13.3054 6.32379 12.9321 5.56724C12.5587 4.81069 12.0163 4.15017 11.3468 3.6368C10.6773 3.12342 9.89863 2.77095 9.07111 2.60664C8.24359 2.44234 7.38936 2.47061 6.57452 2.68927C5.75968 2.90794 5.00606 3.31112 4.37197 3.86765C3.73788 4.42417 3.24032 5.1191 2.91779 5.89869C2.59525 6.67828 2.45639 7.52161 2.51193 8.36345C2.56748 9.2053 2.81595 10.0231 3.23812 10.7535C3.27356 10.8148 3.29556 10.883 3.30267 10.9535C3.30978 11.0239 3.30184 11.0951 3.27937 11.1623L2.5 13.4998L4.8375 12.7204C4.88841 12.703 4.94183 12.6942 4.99562 12.6941C5.08344 12.6943 5.16966 12.7176 5.24562 12.7616C6.08175 13.2454 7.03054 13.5004 7.99653 13.501C8.96251 13.5016 9.91162 13.2478 10.7484 12.7651C11.5851 12.2824 12.2799 11.5879 12.763 10.7513C13.246 9.91477 13.5002 8.96576 13.5 7.99978Z" fill="#ACACAC"/>
</svg>
