<svg width="24" height="24" viewBox="0 0 24 24" fill="none" xmlns="http://www.w3.org/2000/svg">
<path d="M13.9441 12L18.0018 7.9269C18.1403 7.78845 18.2137 7.61698 18.222 7.4125C18.2304 7.20802 18.157 7.02822 18.0018 6.8731C17.857 6.72822 17.6813 6.65578 17.4749 6.65578C17.2685 6.65578 17.0929 6.72822 16.948 6.8731L12.4538 11.3673C12.3602 11.4609 12.2942 11.5596 12.2557 11.6635C12.2172 11.7673 12.198 11.8795 12.198 12C12.198 12.1205 12.2172 12.2327 12.2557 12.3365C12.2942 12.4404 12.3602 12.5391 12.4538 12.6327L16.948 17.1269C17.0865 17.2654 17.2579 17.3388 17.4624 17.3471C17.6669 17.3554 17.8467 17.282 18.0018 17.1269C18.1467 16.982 18.2191 16.8064 18.2191 16.6C18.2191 16.3936 18.1467 16.218 18.0018 16.0731L13.9441 12ZM7.59414 12L11.6518 7.9269C11.7903 7.78845 11.8637 7.61698 11.872 7.4125C11.8804 7.20802 11.807 7.02822 11.6518 6.8731C11.507 6.72822 11.3313 6.65578 11.1249 6.65578C10.9185 6.65578 10.7429 6.72822 10.598 6.8731L6.10379 11.3673C6.01021 11.4609 5.94419 11.5596 5.90572 11.6635C5.86725 11.7673 5.84802 11.8795 5.84802 12C5.84802 12.1205 5.86725 12.2327 5.90572 12.3365C5.94419 12.4404 6.01021 12.5391 6.10379 12.6327L10.598 17.1269C10.7365 17.2654 10.9079 17.3388 11.1124 17.3471C11.3169 17.3554 11.4967 17.282 11.6518 17.1269C11.7967 16.982 11.8691 16.8064 11.8691 16.6C11.8691 16.3936 11.7967 16.218 11.6518 16.0731L7.59414 12Z" fill="#444444"/>
</svg>
