<svg width="24" height="24" viewBox="0 0 24 24" fill="none" xmlns="http://www.w3.org/2000/svg">
<g id="ic-doubleArrow-right">
<path id="Vector" d="M10.0558 12L5.99812 7.92689C5.85965 7.78844 5.78625 7.61697 5.77792 7.41249C5.76959 7.208 5.84299 7.0282 5.99812 6.87309C6.14299 6.7282 6.31862 6.65576 6.52502 6.65576C6.73144 6.65576 6.90708 6.7282 7.05194 6.87309L11.5462 11.3673C11.6398 11.4609 11.7058 11.5596 11.7442 11.6635C11.7827 11.7673 11.8019 11.8795 11.8019 12C11.8019 12.1205 11.7827 12.2327 11.7442 12.3365C11.7058 12.4404 11.6398 12.5391 11.5462 12.6327L7.05194 17.1269C6.91348 17.2654 6.742 17.3388 6.53752 17.3471C6.33304 17.3554 6.15324 17.282 5.99812 17.1269C5.85325 16.982 5.78082 16.8064 5.78082 16.6C5.78082 16.3936 5.85325 16.218 5.99812 16.0731L10.0558 12ZM16.4058 12L12.3481 7.92689C12.2096 7.78844 12.1363 7.61697 12.1279 7.41249C12.1196 7.208 12.193 7.0282 12.3481 6.87309C12.493 6.7282 12.6686 6.65576 12.875 6.65576C13.0814 6.65576 13.2571 6.7282 13.4019 6.87309L17.8961 11.3673C17.9897 11.4609 18.0558 11.5596 18.0942 11.6635C18.1327 11.7673 18.1519 11.8795 18.1519 12C18.1519 12.1205 18.1327 12.2327 18.0942 12.3365C18.0558 12.4404 17.9897 12.5391 17.8961 12.6327L13.4019 17.1269C13.2635 17.2654 13.092 17.3388 12.8875 17.3471C12.683 17.3554 12.5032 17.282 12.3481 17.1269C12.2032 16.982 12.1308 16.8064 12.1308 16.6C12.1308 16.3936 12.2032 16.218 12.3481 16.0731L16.4058 12Z" fill="#EEEEEE"/>
</g>
</svg>
