<svg width="24" height="24" viewBox="0 0 24 24" fill="none" xmlns="http://www.w3.org/2000/svg">
<g id="ic-doubleArrow-light">
<path id="Vector" d="M13.9442 12L18.0019 7.92689C18.1404 7.78844 18.2138 7.61697 18.2221 7.41249C18.2304 7.208 18.157 7.0282 18.0019 6.87309C17.857 6.7282 17.6814 6.65576 17.475 6.65576C17.2686 6.65576 17.093 6.7282 16.9481 6.87309L12.4539 11.3673C12.3603 11.4609 12.2943 11.5596 12.2558 11.6635C12.2173 11.7673 12.1981 11.8795 12.1981 12C12.1981 12.1205 12.2173 12.2327 12.2558 12.3365C12.2943 12.4404 12.3603 12.5391 12.4539 12.6327L16.9481 17.1269C17.0866 17.2654 17.258 17.3388 17.4625 17.3471C17.667 17.3554 17.8468 17.282 18.0019 17.1269C18.1468 16.982 18.2192 16.8064 18.2192 16.6C18.2192 16.3936 18.1468 16.218 18.0019 16.0731L13.9442 12ZM7.59424 12L11.6519 7.92689C11.7904 7.78844 11.8638 7.61697 11.8721 7.41249C11.8804 7.208 11.8071 7.0282 11.6519 6.87309C11.5071 6.7282 11.3314 6.65576 11.125 6.65576C10.9186 6.65576 10.743 6.7282 10.5981 6.87309L6.10389 11.3673C6.0103 11.4609 5.94428 11.5596 5.90581 11.6635C5.86734 11.7673 5.84811 11.8795 5.84811 12C5.84811 12.1205 5.86734 12.2327 5.90581 12.3365C5.94428 12.4404 6.0103 12.5391 6.10389 12.6327L10.5981 17.1269C10.7366 17.2654 10.908 17.3388 11.1125 17.3471C11.317 17.3554 11.4968 17.282 11.6519 17.1269C11.7968 16.982 11.8692 16.8064 11.8692 16.6C11.8692 16.3936 11.7968 16.218 11.6519 16.0731L7.59424 12Z" fill="#333333"/>
</g>
</svg>
