<svg width="20" height="20" viewBox="0 0 20 20" fill="none" xmlns="http://www.w3.org/2000/svg">
<g id="ic-discord" clip-path="url(#clip0_5626_9585)">
<g id="Group">
<path id="Vector" d="M16.9309 3.64167C15.6559 3.05667 14.2892 2.62584 12.8601 2.37917C12.8342 2.37417 12.8084 2.38667 12.7942 2.41001C12.6184 2.72251 12.4234 3.13084 12.2876 3.45084C10.7501 3.22084 9.22091 3.22084 7.71507 3.45084C7.57924 3.12334 7.37674 2.72251 7.20091 2.41001C7.18674 2.38667 7.16091 2.37501 7.13507 2.37917C5.70674 2.62501 4.34007 3.05584 3.06424 3.64167C3.05341 3.64584 3.04341 3.65417 3.03757 3.66417C0.445073 7.53751 -0.265761 11.3158 0.0825727 15.0475C0.0842394 15.0658 0.0942394 15.0833 0.108406 15.0942C1.81924 16.3508 3.47591 17.1133 5.10257 17.6183C5.12841 17.6267 5.15591 17.6167 5.17257 17.595C5.55757 17.07 5.90007 16.5158 6.19424 15.9333C6.21174 15.8992 6.19507 15.8583 6.15924 15.845C5.61507 15.6383 5.09757 15.3867 4.59924 15.1017C4.56007 15.0783 4.55674 15.0225 4.59257 14.995C4.69757 14.9167 4.80257 14.835 4.90257 14.7525C4.92091 14.7375 4.94591 14.7342 4.96757 14.7442C8.24091 16.2383 11.7842 16.2383 15.0184 14.7442C15.0401 14.7342 15.0651 14.7367 15.0842 14.7525C15.1842 14.835 15.2892 14.9175 15.3951 14.9958C15.4317 15.0225 15.4292 15.0792 15.3892 15.1025C14.8909 15.3933 14.3734 15.64 13.8284 15.845C13.7926 15.8583 13.7776 15.9 13.7942 15.9342C14.0942 16.5158 14.4376 17.07 14.8151 17.595C14.8309 17.6175 14.8592 17.6267 14.8851 17.6192C16.5192 17.1133 18.1767 16.3508 19.8867 15.095C19.9017 15.0842 19.9109 15.0675 19.9126 15.0492C20.3292 10.735 19.2142 6.98751 16.9559 3.66584C16.9517 3.65417 16.9417 3.64584 16.9309 3.64167ZM6.68341 12.7758C5.69757 12.7758 4.88591 11.8708 4.88591 10.76C4.88591 9.64917 5.68174 8.74417 6.68341 8.74417C7.69257 8.74417 8.49674 9.65667 8.48091 10.76C8.48091 11.8717 7.68424 12.7758 6.68341 12.7758ZM13.3292 12.7758C12.3442 12.7758 11.5317 11.8708 11.5317 10.76C11.5317 9.64917 12.3276 8.74417 13.3292 8.74417C14.3384 8.74417 15.1426 9.65667 15.1267 10.76C15.1267 11.8717 14.3384 12.7758 13.3292 12.7758Z" fill="#EEEEEE"/>
</g>
</g>
<defs>
<clipPath id="clip0_5626_9585">
<rect width="20" height="20" fill="white"/>
</clipPath>
</defs>
</svg>
