<svg width="24" height="24" viewBox="0 0 24 24" fill="none" xmlns="http://www.w3.org/2000/svg">
<path d="M15.7731 12.9729L14.6501 11.8499C14.8206 10.9601 14.5866 10.2012 13.9481 9.57296C13.3097 8.94476 12.5437 8.70374 11.6501 8.84989L10.527 7.72684C10.7591 7.61914 10.9978 7.54157 11.2433 7.49414C11.4889 7.44671 11.7411 7.42299 12.0001 7.42299C13.1347 7.42299 14.0978 7.81882 14.8895 8.61049C15.6811 9.40216 16.077 10.3653 16.077 11.4999C16.077 11.7589 16.0549 12.0111 16.0106 12.2566C15.9664 12.5021 15.8872 12.7409 15.7731 12.9729ZM18.9539 16.0845L17.8501 15.0499C18.4834 14.5666 19.0501 14.0291 19.5501 13.4374C20.0501 12.8457 20.4667 12.1999 20.8001 11.4999C19.9667 9.81656 18.7626 8.47906 17.1876 7.48739C15.6126 6.49572 13.8834 5.99989 12.0001 5.99989C11.5167 5.99989 11.0459 6.03322 10.5876 6.09989C10.1292 6.16656 9.66674 6.26656 9.20007 6.39989L8.03472 5.23454C8.67061 4.98326 9.319 4.798 9.9799 4.67877C10.6408 4.55953 11.3142 4.49991 12.0001 4.49991C14.1488 4.49991 16.1225 5.05825 17.9212 6.17491C19.7199 7.29158 21.1032 8.80247 22.0712 10.7076C22.1379 10.8345 22.1863 10.9624 22.2164 11.0912C22.2465 11.2201 22.2616 11.3563 22.2616 11.4999C22.2616 11.6435 22.2491 11.7797 22.2241 11.9085C22.1991 12.0374 22.1532 12.1653 22.0866 12.2922C21.7327 13.0448 21.2885 13.7396 20.7539 14.3768C20.2193 15.014 19.6193 15.5832 18.9539 16.0845ZM12.0001 18.4999C9.89496 18.4999 7.96548 17.9374 6.21165 16.8124C4.4578 15.6874 3.06357 14.2056 2.02895 12.3672C1.94562 12.2403 1.88472 12.1025 1.84627 11.9537C1.80781 11.805 1.78857 11.6537 1.78857 11.4999C1.78857 11.346 1.80524 11.1973 1.83857 11.0537C1.87191 10.9102 1.93024 10.7698 2.01357 10.6326C2.38537 9.95311 2.80653 9.30599 3.27705 8.69124C3.74757 8.07649 4.28859 7.52553 4.90012 7.03837L2.64242 4.76526C2.50396 4.61655 2.43569 4.43995 2.43762 4.23546C2.43954 4.03098 2.51293 3.85631 2.6578 3.71144C2.80267 3.56657 2.97831 3.49414 3.18472 3.49414C3.39112 3.49414 3.56676 3.56657 3.71162 3.71144L20.2885 20.2883C20.427 20.4268 20.5004 20.5983 20.5087 20.8027C20.517 21.0072 20.4436 21.187 20.2885 21.3422C20.1437 21.487 19.968 21.5595 19.7616 21.5595C19.5552 21.5595 19.3796 21.487 19.2347 21.3422L15.7155 17.8537C15.1257 18.0819 14.5196 18.2467 13.8972 18.3479C13.2748 18.4492 12.6424 18.4999 12.0001 18.4999ZM5.95395 8.09216C5.36805 8.54473 4.84144 9.0566 4.37412 9.62777C3.90681 10.1989 3.51546 10.823 3.20007 11.4999C4.03341 13.1832 5.23757 14.5207 6.81257 15.5124C8.38757 16.5041 10.1167 16.9999 12.0001 16.9999C12.4296 16.9999 12.8523 16.971 13.2684 16.9133C13.6844 16.8557 14.0975 16.7666 14.5078 16.646L13.2424 15.3499C13.0398 15.4383 12.8376 15.4982 12.6356 15.5297C12.4337 15.5611 12.2219 15.5768 12.0001 15.5768C10.8655 15.5768 9.90234 15.181 9.11067 14.3893C8.31901 13.5976 7.92317 12.6345 7.92317 11.4999C7.92317 11.2781 7.94048 11.0662 7.9751 10.8643C8.00972 10.6624 8.06805 10.4601 8.1501 10.2576L5.95395 8.09216Z" fill="#333333"/>
</svg>
