<svg width="32" height="32" viewBox="0 0 32 32" fill="none" xmlns="http://www.w3.org/2000/svg">
<path d="M10.6655 25.847V12.8136C10.6655 12.217 10.8766 11.7102 11.2989 11.2931C11.7211 10.876 12.2305 10.6675 12.8271 10.6675H25.845C26.4416 10.6675 26.9497 10.8773 27.3694 11.297C27.789 11.7166 27.9989 12.2247 27.9989 12.8213V22.1034L22.1014 28.0008H12.8194C12.2228 28.0008 11.7147 27.791 11.295 27.3714C10.8754 26.9517 10.6655 26.4436 10.6655 25.847ZM4.0322 8.79569C3.91595 8.19911 4.03048 7.66193 4.37577 7.18415C4.72108 6.70637 5.19202 6.40936 5.7886 6.29312L18.6143 4.03415C19.2108 3.91791 19.748 4.03243 20.2258 4.37772C20.7036 4.72303 21.0006 5.19397 21.1168 5.79055L21.3989 7.48798H20.0501L19.7655 5.89825C19.7314 5.71021 19.6288 5.56064 19.4578 5.44955C19.2869 5.33844 19.0989 5.29997 18.8937 5.33415L6.0245 7.61878C5.78519 7.65296 5.6057 7.76406 5.48603 7.95209C5.36639 8.14013 5.32365 8.35381 5.35783 8.59312L7.48603 20.6136V23.1957C7.18177 23.047 6.92322 22.8359 6.7104 22.5624C6.49758 22.2889 6.35783 21.9752 6.29116 21.6214L4.0322 8.79569ZM11.9989 12.8213V25.847C11.9989 26.0863 12.0758 26.2829 12.2296 26.4367C12.3835 26.5906 12.5801 26.6675 12.8194 26.6675H21.3322V22.4111C21.3322 22.1017 21.4343 21.8448 21.6386 21.6406C21.8429 21.4363 22.0997 21.3342 22.4091 21.3342H26.6655V12.8213C26.6655 12.582 26.5886 12.3854 26.4348 12.2316C26.2809 12.0777 26.0843 12.0008 25.845 12.0008H12.8194C12.5801 12.0008 12.3835 12.0777 12.2296 12.2316C12.0758 12.3854 11.9989 12.582 11.9989 12.8213Z" fill="#444444"/>
<path d="M23.5013 2.41602C19.5913 2.41602 16.418 5.58935 16.418 9.49935C16.418 13.4093 19.5913 16.5827 23.5013 16.5827C27.4113 16.5827 30.5846 13.4093 30.5846 9.49935C30.5846 5.58935 27.4113 2.41602 23.5013 2.41602ZM24.2096 13.041H22.793V11.6243H24.2096V13.041ZM24.2096 10.2077H22.793V5.95768H24.2096V10.2077Z" fill="#444444"/>
</svg>
