<svg width="12" height="12" viewBox="0 0 12 12" fill="none" xmlns="http://www.w3.org/2000/svg">
<g clip-path="url(#clip0_4033_19405)">
<path d="M9.23434 11.2501C9.15541 11.2504 9.07839 11.2258 9.01426 11.1798L5.99996 8.99449L2.98566 11.1798C2.92127 11.2265 2.84368 11.2515 2.76413 11.2512C2.68457 11.2509 2.60717 11.2254 2.54312 11.1782C2.47906 11.131 2.43166 11.0647 2.40778 10.9888C2.3839 10.9129 2.38478 10.8314 2.41027 10.756L3.5859 7.27394L0.539023 5.18449C0.473026 5.13928 0.423215 5.07415 0.396868 4.99862C0.370521 4.92308 0.369019 4.8411 0.392582 4.76466C0.416145 4.68821 0.463537 4.6213 0.527834 4.5737C0.592132 4.52611 0.669964 4.50032 0.749961 4.50011H4.50887L5.64324 1.0091C5.66768 0.933728 5.71536 0.868035 5.77945 0.821444C5.84353 0.774852 5.92073 0.749756 5.99996 0.749756C6.07919 0.749756 6.15639 0.774852 6.22048 0.821444C6.28456 0.868035 6.33224 0.933728 6.35668 1.0091L7.49106 4.50128H11.25C11.3301 4.50125 11.4081 4.52685 11.4726 4.57436C11.537 4.62186 11.5846 4.68876 11.6083 4.76527C11.632 4.84178 11.6306 4.92386 11.6043 4.99951C11.578 5.07516 11.5282 5.14039 11.4621 5.18566L8.41402 7.27394L9.58895 10.7551C9.60798 10.8115 9.61334 10.8716 9.60457 10.9304C9.5958 10.9892 9.57316 11.0451 9.53851 11.0935C9.50387 11.1419 9.45821 11.1813 9.40532 11.2085C9.35244 11.2357 9.29383 11.25 9.23434 11.2501Z" fill="#FFE03B"/>
</g>
<defs>
<clipPath id="clip0_4033_19405">
<rect width="12" height="12" fill="white"/>
</clipPath>
</defs>
</svg>
