<svg width="16" height="16" viewBox="0 0 16 16" fill="none" xmlns="http://www.w3.org/2000/svg">
<g clip-path="url(#clip0_4075_5070)">
<path fill-rule="evenodd" clip-rule="evenodd" d="M2.49573 7.58467C2.49573 4.68939 4.84282 2.3423 7.7381 2.3423C10.6334 2.3423 12.9805 4.68939 12.9805 7.58467C12.9805 10.48 10.6334 12.827 7.7381 12.827C4.84282 12.827 2.49573 10.48 2.49573 7.58467ZM7.7381 0.8423C4.01439 0.8423 0.995728 3.86096 0.995728 7.58467C0.995728 11.3084 4.01439 14.327 7.7381 14.327C9.25001 14.327 10.6457 13.8294 11.7703 12.989L13.7256 14.9392C14.0189 15.2317 14.4937 15.2311 14.7863 14.9378C15.0788 14.6446 15.0781 14.1697 14.7849 13.8772L12.8657 11.963C13.8725 10.7849 14.4805 9.25581 14.4805 7.58467C14.4805 3.86096 11.4618 0.8423 7.7381 0.8423Z" fill="#444444"/>
</g>
<defs>
<clipPath id="clip0_4075_5070">
<rect width="16" height="16" fill="white"/>
</clipPath>
</defs>
</svg>
