<svg width="16" height="16" viewBox="0 0 16 16" fill="none" xmlns="http://www.w3.org/2000/svg">
<path d="M7.26154 14.3331C7.03418 14.3331 6.83782 14.2577 6.67244 14.1069C6.50706 13.956 6.40642 13.7703 6.37052 13.5498L6.20771 12.3024C6.02907 12.2425 5.84595 12.1588 5.65834 12.0511C5.47073 11.9434 5.30299 11.828 5.15512 11.7049L3.99999 12.196C3.79059 12.2883 3.58012 12.2972 3.36859 12.2229C3.15706 12.1485 2.99275 12.0135 2.87566 11.8178L2.12437 10.5152C2.00728 10.3195 1.97352 10.1124 2.02309 9.89406C2.07267 9.67569 2.18634 9.49557 2.36411 9.35369L3.36284 8.60367C3.34745 8.50453 3.33655 8.40496 3.33014 8.30496C3.32373 8.20496 3.32052 8.10538 3.32052 8.00624C3.32052 7.91136 3.32373 7.81499 3.33014 7.71712C3.33655 7.61926 3.34745 7.51221 3.36284 7.39597L2.36411 6.64596C2.18634 6.50408 2.07373 6.32289 2.02629 6.10239C1.97886 5.88188 2.01369 5.67376 2.13079 5.47804L2.87566 4.1947C2.99275 4.00326 3.15706 3.86929 3.36859 3.79279C3.58012 3.7163 3.79059 3.7242 3.99999 3.8165L5.14871 4.30114C5.3094 4.17378 5.48098 4.05733 5.66346 3.95177C5.84595 3.8462 6.02522 3.76137 6.20129 3.69727L6.37052 2.44982C6.40642 2.22932 6.50706 2.04364 6.67244 1.89279C6.83782 1.74193 7.03418 1.6665 7.26154 1.6665H8.73844C8.9658 1.6665 9.16216 1.74193 9.32754 1.89279C9.49292 2.04364 9.59356 2.22932 9.62946 2.44982L9.79227 3.70369C9.99227 3.77633 10.1733 3.86116 10.3352 3.95817C10.4972 4.05518 10.6607 4.1695 10.8256 4.30114L12.0064 3.8165C12.2158 3.7242 12.4263 3.7163 12.6378 3.79279C12.8493 3.86929 13.0136 4.00326 13.1307 4.1947L13.8756 5.48445C13.9927 5.68018 14.0265 5.88722 13.9769 6.10559C13.9273 6.32396 13.8136 6.50408 13.6359 6.64596L12.6115 7.41519C12.6354 7.52289 12.6485 7.62353 12.6506 7.71712C12.6527 7.81071 12.6538 7.90494 12.6538 7.99982C12.6538 8.09042 12.6517 8.18252 12.6474 8.27611C12.6431 8.36969 12.6277 8.47675 12.6012 8.59727L13.6064 9.35369C13.7842 9.49557 13.8989 9.67569 13.9506 9.89406C14.0023 10.1124 13.9696 10.3195 13.8525 10.5152L13.0974 11.8113C12.9803 12.0071 12.8149 12.1421 12.6013 12.2165C12.3876 12.2908 12.1761 12.2819 11.9667 12.1895L10.8256 11.6985C10.6607 11.8301 10.4923 11.9466 10.3205 12.0479C10.1487 12.1492 9.97262 12.2319 9.79227 12.296L9.62946 13.5498C9.59356 13.7703 9.49292 13.956 9.32754 14.1069C9.16216 14.2577 8.9658 14.3331 8.73844 14.3331H7.26154ZM7.33332 13.3332H8.64357L8.88332 11.5473C9.22349 11.4584 9.53438 11.3321 9.81601 11.1684C10.0976 11.0047 10.3692 10.7943 10.6308 10.537L12.2872 11.2332L12.9436 10.0998L11.4974 9.01007C11.553 8.83743 11.5908 8.6682 11.6109 8.50239C11.631 8.33658 11.641 8.16906 11.641 7.99982C11.641 7.82632 11.631 7.6588 11.6109 7.49726C11.5908 7.33572 11.553 7.17077 11.4974 7.00239L12.9564 5.89982L12.3 4.76649L10.6243 5.47291C10.4013 5.23444 10.134 5.02375 9.82242 4.84085C9.51088 4.65794 9.19571 4.52845 8.87691 4.45239L8.66666 2.66649H7.34357L7.12307 4.44597C6.7829 4.52632 6.46879 4.64939 6.18076 4.8152C5.89272 4.98102 5.61794 5.19469 5.35641 5.45624L3.69999 4.76649L3.04357 5.89982L4.48332 6.97291C4.42777 7.13102 4.38888 7.29554 4.36666 7.46649C4.34443 7.63743 4.33332 7.81735 4.33332 8.00624C4.33332 8.17974 4.34443 8.34982 4.36666 8.51649C4.38888 8.68316 4.42563 8.84768 4.47691 9.01007L3.04357 10.0998L3.69999 11.2332L5.34999 10.5332C5.60298 10.793 5.87349 11.0058 6.16152 11.1716C6.44956 11.3374 6.76793 11.4648 7.11666 11.5537L7.33332 13.3332ZM8.00767 9.99981C8.56237 9.99981 9.03438 9.80515 9.42369 9.41584C9.813 9.02652 10.0077 8.55451 10.0077 7.99982C10.0077 7.44513 9.813 6.97313 9.42369 6.58381C9.03438 6.19449 8.56237 5.99984 8.00767 5.99984C7.44615 5.99984 6.97244 6.19449 6.58654 6.58381C6.20065 6.97313 6.00771 7.44513 6.00771 7.99982C6.00771 8.55451 6.20065 9.02652 6.58654 9.41584C6.97244 9.80515 7.44615 9.99981 8.00767 9.99981Z" fill="#ACACAC"/>
</svg>
