<svg width="24" height="24" viewBox="0 0 24 24" fill="none" xmlns="http://www.w3.org/2000/svg">
<g clip-path="url(#clip0_4619_29119)">
<path fill-rule="evenodd" clip-rule="evenodd" d="M21.0234 12.7904C21.1612 12.3891 21.1207 12.1522 21.024 11.7899C20.4301 9.56422 9.53877 3.87817 6.07454 2.81447C5.17207 2.53727 4.51814 2.64889 4.13422 3.14527C3.02143 4.58194 4.00811 8.95731 6.68018 11.6294L10.7067 11.6294C11.1093 11.6435 11.4242 11.9822 11.4102 12.386C11.3961 12.7898 11.0584 13.1056 10.6558 13.0915L6.50811 13.0915C3.00811 16.5915 2.52555 19.2976 3.52003 20.7846C3.5573 20.8404 3.59812 20.8929 3.64254 20.9407C4.00987 21.3358 4.61158 21.4396 5.43195 21.2497C8.9596 20.4329 20.2747 14.9718 21.0234 12.7904Z" fill="#ADFF00"/>
</g>
<defs>
<clipPath id="clip0_4619_29119">
<rect width="24" height="24" fill="white"/>
</clipPath>
</defs>
</svg>
