<svg width="12" height="12" viewBox="0 0 12 12" fill="none" xmlns="http://www.w3.org/2000/svg">
<g clip-path="url(#clip0_4033_19406)">
<path d="M9.23431 11.2501C9.15538 11.2504 9.07836 11.2258 9.01423 11.1798L5.99993 8.99449L2.98563 11.1798C2.92124 11.2265 2.84365 11.2515 2.7641 11.2512C2.68454 11.2509 2.60714 11.2254 2.54309 11.1782C2.47903 11.131 2.43163 11.0647 2.40775 10.9888C2.38387 10.9129 2.38475 10.8314 2.41024 10.756L3.58587 7.27394L0.538993 5.18449C0.472995 5.13928 0.423184 5.07415 0.396837 4.99862C0.370491 4.92308 0.368989 4.8411 0.392552 4.76466C0.416114 4.68821 0.463506 4.6213 0.527804 4.5737C0.592101 4.52611 0.669934 4.50032 0.74993 4.50011H4.50884L5.64321 1.0091C5.66765 0.933728 5.71533 0.868035 5.77942 0.821444C5.8435 0.774852 5.9207 0.749756 5.99993 0.749756C6.07916 0.749756 6.15636 0.774852 6.22045 0.821444C6.28453 0.868035 6.33221 0.933728 6.35665 1.0091L7.49102 4.50128H11.2499C11.33 4.50125 11.408 4.52685 11.4725 4.57436C11.537 4.62186 11.5846 4.68876 11.6083 4.76527C11.632 4.84178 11.6306 4.92386 11.6043 4.99951C11.578 5.07516 11.5281 5.14039 11.462 5.18566L8.41399 7.27394L9.58892 10.7551C9.60795 10.8115 9.61331 10.8716 9.60454 10.9304C9.59577 10.9892 9.57313 11.0451 9.53848 11.0935C9.50384 11.1419 9.45818 11.1813 9.40529 11.2085C9.3524 11.2357 9.29379 11.25 9.23431 11.2501Z" fill="#333333"/>
</g>
<defs>
<clipPath id="clip0_4033_19406">
<rect width="12" height="12" fill="white"/>
</clipPath>
</defs>
</svg>
