<svg width="36" height="36" viewBox="0 0 36 36" fill="none" xmlns="http://www.w3.org/2000/svg">
<path d="M26.7493 33.9442L26.7513 33.9456L27.703 33.7503L27.7039 34.2503C27.7042 34.2503 27.7046 34.2503 27.7049 34.2503C27.9624 34.2497 28.216 34.1879 28.4448 34.0701C28.674 33.9521 28.8718 33.7812 29.022 33.5717C29.1721 33.3621 29.2702 33.1199 29.3082 32.8649C29.3462 32.6099 29.323 32.3496 29.2405 32.1053L25.8368 22.0204L34.6688 15.9695C34.6688 15.9695 34.6688 15.9695 34.6688 15.9695C34.9551 15.7733 35.1711 15.4906 35.2852 15.1628C35.3992 14.835 35.4053 14.4793 35.3026 14.1478C35.1998 13.8163 34.9936 13.5263 34.7142 13.3205C34.4348 13.1147 34.0969 13.0037 33.7499 13.0039C33.7498 13.0039 33.7497 13.0039 33.7496 13.0039H22.8364L19.5456 2.87308C19.5456 2.873 19.5456 2.87291 19.5456 2.87282C19.4396 2.54633 19.233 2.26176 18.9554 2.05991C18.6777 1.85802 18.3432 1.74927 17.9999 1.74927C17.6565 1.74927 17.322 1.85802 17.0443 2.05991C16.7666 2.26181 16.56 2.54648 16.4541 2.87308L13.1633 13.0003L2.24985 13.0003L2.24854 13.0003C1.90189 13.0012 1.56461 13.113 1.28599 13.3192C1.00737 13.5255 0.802002 13.8154 0.699897 14.1467C0.597792 14.478 0.6043 14.8332 0.718469 15.1605C0.83261 15.4878 1.04838 15.7699 1.33426 15.9658C1.33433 15.9659 1.3344 15.9659 1.33448 15.966L10.1629 22.0203L6.75717 32.1079C6.75713 32.108 6.7571 32.1081 6.75706 32.1082C6.64667 32.4347 6.64293 32.7878 6.74638 33.1165C6.84986 33.4453 7.05524 33.7327 7.33282 33.9372C7.6104 34.1416 7.9458 34.2524 8.29054 34.2537C8.63523 34.255 8.9714 34.1466 9.25044 33.9442C9.25047 33.9442 9.2505 33.9442 9.25053 33.9441L17.9999 27.601L26.7493 33.9442Z" fill="#333333" stroke="#FF2E00"/>
</svg>
