<svg width="24" height="24" viewBox="0 0 24 24" fill="none" xmlns="http://www.w3.org/2000/svg">
<g id="ic-delete/active">
<path id="Vector" d="M7.3077 20.4998C6.80898 20.4998 6.38302 20.3232 6.02982 19.97C5.67661 19.6168 5.5 19.1908 5.5 18.6921V5.99981H5.25C5.03718 5.99981 4.85898 5.92802 4.7154 5.78443C4.5718 5.64085 4.5 5.46265 4.5 5.24983C4.5 5.03702 4.5718 4.85882 4.7154 4.71523C4.85898 4.57163 5.03718 4.49983 5.25 4.49983H8.99997C8.99997 4.25497 9.08619 4.04632 9.25863 3.87388C9.43106 3.70145 9.63971 3.61523 9.88457 3.61523H14.1154C14.3602 3.61523 14.5689 3.70145 14.7413 3.87388C14.9138 4.04632 15 4.25497 15 4.49983H18.75C18.9628 4.49983 19.141 4.57163 19.2845 4.71523C19.4281 4.85882 19.5 5.03702 19.5 5.24983C19.5 5.46265 19.4281 5.64085 19.2845 5.78443C19.141 5.92802 18.9628 5.99981 18.75 5.99981H18.5V18.6921C18.5 19.1908 18.3233 19.6168 17.9701 19.97C17.6169 20.3232 17.191 20.4998 16.6922 20.4998H7.3077ZM17 5.99981H6.99997V18.6921C6.99997 18.7818 7.02883 18.8556 7.08652 18.9133C7.14423 18.971 7.21795 18.9998 7.3077 18.9998H16.6922C16.782 18.9998 16.8557 18.971 16.9134 18.9133C16.9711 18.8556 17 18.7818 17 18.6921V5.99981ZM12 13.5536L14.0731 15.6267C14.2115 15.7652 14.3856 15.836 14.5952 15.8392C14.8048 15.8424 14.982 15.7716 15.1269 15.6267C15.2718 15.4818 15.3442 15.3062 15.3442 15.0998C15.3442 14.8934 15.2718 14.7178 15.1269 14.5729L13.0538 12.4998L15.1269 10.4267C15.2653 10.2883 15.3362 10.1142 15.3394 9.90461C15.3426 9.69501 15.2718 9.51778 15.1269 9.37291C14.982 9.22803 14.8064 9.15559 14.6 9.15559C14.3936 9.15559 14.2179 9.22803 14.0731 9.37291L12 11.446L9.92687 9.37291C9.78842 9.23444 9.61439 9.16361 9.40477 9.16041C9.19517 9.15719 9.01794 9.22803 8.87308 9.37291C8.72819 9.51778 8.65575 9.69341 8.65575 9.89981C8.65575 10.1062 8.72819 10.2818 8.87308 10.4267L10.9461 12.4998L8.87308 14.5729C8.73461 14.7114 8.66377 14.8854 8.66058 15.095C8.65736 15.3046 8.72819 15.4818 8.87308 15.6267C9.01794 15.7716 9.19357 15.844 9.39997 15.844C9.60637 15.844 9.78201 15.7716 9.92687 15.6267L12 13.5536Z" fill="#ADFF00"/>
</g>
</svg>
