<svg width="32" height="32" viewBox="0 0 32 32" fill="none" xmlns="http://www.w3.org/2000/svg">
<path d="M6 28C5.45 28 4.97917 27.8042 4.5875 27.4125C4.19583 27.0208 4 26.55 4 26V6C4 5.45 4.19583 4.97917 4.5875 4.5875C4.97917 4.19583 5.45 4 6 4H19.6333V6H6V26H26V12.4H28V26C28 26.55 27.8042 27.0208 27.4125 27.4125C27.0208 27.8042 26.55 28 26 28H6ZM23.3333 11.4V8.7H20.6333V6.7H23.3333V4H25.3333V6.7H28.0333V8.7H25.3333V11.4H23.3333ZM8 22.6H24L19.2 16.2L14.9667 21.7667L11.8333 17.6333L8 22.6Z" fill="#852DFF"/>
</svg>
