<svg width="16" height="16" viewBox="0 0 16 16" fill="none" xmlns="http://www.w3.org/2000/svg">
<g id="upload_file_FILL0_wght300_GRAD0_opsz24 1">
<path id="Vector" d="M7.5 9.29928V11.7557C7.5 11.8976 7.54786 12.0164 7.64358 12.1121C7.73931 12.2079 7.85811 12.2557 7.99998 12.2557C8.14186 12.2557 8.26066 12.2079 8.35638 12.1121C8.45211 12.0164 8.49997 11.8976 8.49997 11.7557V9.29928L9.38205 10.1814C9.43162 10.2309 9.48738 10.2681 9.54935 10.2929C9.61132 10.3177 9.67328 10.3284 9.73523 10.3249C9.7972 10.3215 9.85853 10.3074 9.91922 10.2827C9.97989 10.2579 10.035 10.2207 10.0846 10.1711C10.1812 10.0677 10.2312 9.9506 10.2346 9.81983C10.238 9.68907 10.188 9.57198 10.0846 9.46857L8.42177 7.80575C8.35938 7.74335 8.29357 7.69933 8.22433 7.6737C8.15511 7.64806 8.08033 7.63523 7.99998 7.63523C7.91964 7.63523 7.84486 7.64806 7.77563 7.6737C7.7064 7.69933 7.64059 7.74335 7.5782 7.80575L5.91538 9.46857C5.81624 9.5677 5.76731 9.68372 5.76858 9.81663C5.76986 9.94953 5.82221 10.0677 5.92563 10.1711C6.02904 10.2677 6.14613 10.3177 6.2769 10.3211C6.40767 10.3245 6.52476 10.2745 6.62818 10.1711L7.5 9.29928ZM4.20513 14.3327C3.86838 14.3327 3.58333 14.216 3.35 13.9827C3.11667 13.7493 3 13.4643 3 13.1275V2.87115C3 2.53439 3.11667 2.24935 3.35 2.01602C3.58333 1.78268 3.86838 1.66602 4.20513 1.66602H9.00128C9.16196 1.66602 9.31644 1.69722 9.46473 1.75962C9.61302 1.822 9.74187 1.9079 9.85128 2.0173L12.6487 4.8147C12.7581 4.92411 12.844 5.05296 12.9064 5.20125C12.9688 5.34954 13 5.50402 13 5.6647V13.1275C13 13.4643 12.8833 13.7493 12.65 13.9827C12.4166 14.216 12.1316 14.3327 11.7948 14.3327H4.20513ZM9 5.06342V2.666H4.20513C4.15384 2.666 4.10683 2.68737 4.06408 2.7301C4.02135 2.77284 3.99998 2.81986 3.99998 2.87115V13.1275C3.99998 13.1788 4.02135 13.2258 4.06408 13.2686C4.10683 13.3113 4.15384 13.3327 4.20513 13.3327H11.7948C11.8461 13.3327 11.8931 13.3113 11.9359 13.2686C11.9786 13.2258 12 13.1788 12 13.1275V5.66598H9.60257C9.43078 5.66598 9.28741 5.6085 9.17245 5.49353C9.05748 5.37858 9 5.2352 9 5.06342Z" fill="#ACACAC"/>
</g>
</svg>
