<svg width="42" height="42" viewBox="0 0 42 42" fill="none" xmlns="http://www.w3.org/2000/svg">
<rect x="0.5" y="0.5" width="41" height="41" rx="20.5" stroke="white" stroke-opacity="0.2"/>
<circle cx="21.5" cy="0.5" r="0.5" fill="#EEEEEE"/>
<circle cx="0.5" cy="21.5" r="0.5" fill="#EEEEEE"/>
<circle cx="41.5" cy="21.5" r="0.5" fill="#EEEEEE"/>
<circle cx="21.5" cy="41.5" r="0.5" fill="#EEEEEE"/>
<g filter="url(#filter0_b_4034_21867)">
<circle cx="21.0001" cy="21" r="16" fill="white" fill-opacity="0.1"/>
<circle cx="21.0001" cy="21" r="15.5" stroke="#EEEEEE"/>
</g>
<path d="M14.9375 27.4584C14.1523 27.4584 13.4845 27.1811 12.9343 26.6266C12.3841 26.0722 12.1004 25.3969 12.0833 24.6009C12.0833 24.4835 12.0889 24.3676 12.1001 24.2533C12.1114 24.139 12.1309 24.022 12.1586 23.9023L13.9086 16.9023C14.091 16.2 14.4623 15.631 15.0225 15.1953C15.5826 14.7596 16.221 14.5417 16.9375 14.5417H25.0625C25.779 14.5417 26.4173 14.7596 26.9775 15.1953C27.5376 15.631 27.9089 16.2 28.0913 16.9023L29.8413 23.9023C29.8691 24.022 29.8921 24.1424 29.9102 24.2637C29.9284 24.3849 29.9375 24.5043 29.9375 24.6217C29.9375 25.4178 29.6567 26.0895 29.0953 26.6371C28.5339 27.1846 27.8565 27.4584 27.063 27.4584C26.5167 27.4584 26.0123 27.315 25.5497 27.0281C25.0871 26.7412 24.7361 26.3526 24.4968 25.8622L23.9055 24.6459C23.82 24.4723 23.6918 24.3421 23.5208 24.2552C23.3499 24.1684 23.1693 24.125 22.9792 24.125H19.0208C18.832 24.125 18.6518 24.1678 18.4802 24.2532C18.3086 24.3387 18.18 24.4696 18.0945 24.6459L17.5032 25.8622C17.2692 26.358 16.9191 26.7479 16.4528 27.0321C15.9866 27.3163 15.4815 27.4584 14.9375 27.4584ZM15.0022 26.2084C15.302 26.2084 15.5769 26.1283 15.8269 25.968C16.0769 25.8078 16.2655 25.5936 16.3926 25.3254L16.976 24.1299C17.1678 23.737 17.4492 23.4296 17.8202 23.2078C18.1911 22.986 18.5913 22.8751 19.0208 22.8751H22.9792C23.4119 22.8751 23.8128 22.9907 24.1819 23.222C24.551 23.4533 24.8387 23.7586 25.0449 24.1379L25.6282 25.3254C25.7553 25.5936 25.9439 25.8078 26.1939 25.968C26.4439 26.1283 26.7207 26.2084 27.0243 26.2084C27.4716 26.2084 27.855 26.0586 28.1746 25.7589C28.4941 25.4592 28.6581 25.0882 28.6667 24.6459C28.6667 24.6384 28.6501 24.4904 28.617 24.202L26.867 17.2228C26.7591 16.8051 26.5393 16.4621 26.2075 16.194C25.8758 15.9258 25.4941 15.7917 25.0625 15.7917H16.9375C16.5002 15.7917 16.1136 15.9258 15.7778 16.194C15.4419 16.4621 15.227 16.8051 15.133 17.2228L13.383 24.202C13.3606 24.2746 13.344 24.4157 13.3333 24.6251C13.3333 25.0729 13.497 25.4487 13.8245 25.7526C14.152 26.0565 14.5445 26.2084 15.0022 26.2084ZM22.25 20.0706C22.4541 20.0706 22.6279 19.9987 22.7716 19.855C22.9153 19.7113 22.9872 19.5374 22.9872 19.3334C22.9872 19.1293 22.9153 18.9555 22.7716 18.8118C22.6279 18.6681 22.4541 18.5962 22.25 18.5962C22.0459 18.5962 21.8721 18.6681 21.7284 18.8118C21.5847 18.9555 21.5128 19.1293 21.5128 19.3334C21.5128 19.5374 21.5847 19.7113 21.7284 19.855C21.8721 19.9987 22.0459 20.0706 22.25 20.0706ZM23.9167 18.4039C24.1207 18.4039 24.2946 18.332 24.4383 18.1884C24.582 18.0447 24.6538 17.8708 24.6538 17.6667C24.6538 17.4627 24.582 17.2888 24.4383 17.1451C24.2946 17.0014 24.1207 16.9296 23.9167 16.9296C23.7126 16.9296 23.5387 17.0014 23.395 17.1451C23.2513 17.2888 23.1795 17.4627 23.1795 17.6667C23.1795 17.8708 23.2513 18.0447 23.395 18.1884C23.5387 18.332 23.7126 18.4039 23.9167 18.4039ZM23.9167 21.7372C24.1207 21.7372 24.2946 21.6654 24.4383 21.5217C24.582 21.378 24.6538 21.2041 24.6538 21.0001C24.6538 20.796 24.582 20.6221 24.4383 20.4784C24.2946 20.3347 24.1207 20.2629 23.9167 20.2629C23.7126 20.2629 23.5387 20.3347 23.395 20.4784C23.2513 20.6221 23.1795 20.796 23.1795 21.0001C23.1795 21.2041 23.2513 21.378 23.395 21.5217C23.5387 21.6654 23.7126 21.7372 23.9167 21.7372ZM25.5833 20.0706C25.7874 20.0706 25.9613 19.9987 26.105 19.855C26.2487 19.7113 26.3205 19.5374 26.3205 19.3334C26.3205 19.1293 26.2487 18.9555 26.105 18.8118C25.9613 18.6681 25.7874 18.5962 25.5833 18.5962C25.3793 18.5962 25.2054 18.6681 25.0617 18.8118C24.918 18.9555 24.8462 19.1293 24.8462 19.3334C24.8462 19.5374 24.918 19.7113 25.0617 19.855C25.2054 19.9987 25.3793 20.0706 25.5833 20.0706ZM18.083 21.2885C18.2264 21.2885 18.3451 21.2416 18.4391 21.1477C18.5331 21.0539 18.5801 20.9352 18.5801 20.7917V19.8302H19.5417C19.6852 19.8302 19.8039 19.7833 19.8977 19.6895C19.9915 19.5958 20.0385 19.4772 20.0385 19.3338C20.0385 19.1904 19.9915 19.0717 19.8977 18.9776C19.8039 18.8836 19.6852 18.8366 19.5417 18.8366H18.5801V17.8751C18.5801 17.7315 18.5332 17.6129 18.4395 17.519C18.3457 17.4252 18.2271 17.3783 18.0837 17.3783C17.9403 17.3783 17.8216 17.4252 17.7276 17.519C17.6336 17.6129 17.5865 17.7315 17.5865 17.8751V18.8366H16.625C16.4815 18.8366 16.3628 18.8835 16.269 18.9773C16.1751 19.071 16.1282 19.1896 16.1282 19.333C16.1282 19.4764 16.1751 19.5951 16.269 19.6892C16.3628 19.7832 16.4815 19.8302 16.625 19.8302H17.5865V20.7917C17.5865 20.9352 17.6334 21.0539 17.7272 21.1477C17.821 21.2416 17.9396 21.2885 18.083 21.2885Z" fill="#EEEEEE"/>
<defs>
<filter id="filter0_b_4034_21867" x="-6.99989" y="-7" width="56" height="56" filterUnits="userSpaceOnUse" color-interpolation-filters="sRGB">
<feFlood flood-opacity="0" result="BackgroundImageFix"/>
<feGaussianBlur in="BackgroundImageFix" stdDeviation="6"/>
<feComposite in2="SourceAlpha" operator="in" result="effect1_backgroundBlur_4034_21867"/>
<feBlend mode="normal" in="SourceGraphic" in2="effect1_backgroundBlur_4034_21867" result="shape"/>
</filter>
</defs>
</svg>
