<svg width="20" height="20" viewBox="0 0 20 20" fill="none" xmlns="http://www.w3.org/2000/svg">
<path d="M3.9401 16.4576C3.15485 16.4576 2.48712 16.1804 1.93692 15.6259C1.38668 15.0714 1.10302 14.3962 1.08594 13.6002C1.08594 13.4827 1.09154 13.3669 1.10275 13.2525C1.11397 13.1382 1.13347 13.0212 1.16125 12.9016L2.91125 5.90158C3.09364 5.19926 3.46492 4.63025 4.02508 4.19456C4.58525 3.75886 5.22358 3.54102 5.94008 3.54102H14.0651C14.7816 3.54102 15.4199 3.75886 15.9801 4.19456C16.5402 4.63025 16.9115 5.19926 17.0939 5.90158L18.8439 12.9016C18.8717 13.0212 18.8947 13.1417 18.9128 13.263C18.931 13.3842 18.9401 13.5036 18.9401 13.621C18.9401 14.417 18.6593 15.0888 18.0979 15.6363C17.5365 16.1839 16.8591 16.4576 16.0656 16.4576C15.5193 16.4576 15.0149 16.3142 14.5523 16.0274C14.0897 15.7405 13.7387 15.3519 13.4994 14.8615L12.9081 13.6452C12.8226 13.4715 12.6944 13.3413 12.5234 13.2545C12.3525 13.1677 12.172 13.1243 11.9818 13.1243H8.02344C7.83465 13.1243 7.65443 13.167 7.48279 13.2525C7.31117 13.338 7.18262 13.4689 7.09715 13.6452L6.50579 14.8615C6.27182 15.3572 5.9217 15.7472 5.45544 16.0314C4.98919 16.3156 4.48408 16.4576 3.9401 16.4576ZM4.00477 15.2077C4.30462 15.2077 4.57954 15.1276 4.82954 14.9673C5.07954 14.807 5.26811 14.5928 5.39525 14.3247L5.97858 13.1291C6.17044 12.7362 6.45185 12.4289 6.82279 12.2071C7.19374 11.9853 7.59395 11.8743 8.02344 11.8743H11.9818C12.4145 11.8743 12.8154 11.99 13.1845 12.2213C13.5536 12.4526 13.8413 12.7579 14.0475 13.1372L14.6308 14.3247C14.7579 14.5928 14.9465 14.807 15.1965 14.9673C15.4465 15.1276 15.7233 15.2077 16.0269 15.2077C16.4742 15.2077 16.8576 15.0578 17.1772 14.7582C17.4967 14.4585 17.6607 14.0875 17.6693 13.6452C17.6693 13.6377 17.6527 13.4897 17.6196 13.2012L15.8696 6.22208C15.7617 5.80434 15.5419 5.46139 15.2101 5.19322C14.8784 4.92506 14.4967 4.79097 14.0651 4.79097H5.9401C5.50276 4.79097 5.11617 4.92506 4.78035 5.19322C4.44453 5.46139 4.22962 5.80434 4.1356 6.22208L2.3856 13.2012C2.36317 13.2739 2.34661 13.4149 2.33592 13.6243C2.33592 14.0721 2.49965 14.448 2.8271 14.7519C3.15458 15.0557 3.54713 15.2077 4.00477 15.2077ZM11.2526 9.06983C11.4567 9.06983 11.6305 8.99798 11.7742 8.85429C11.9179 8.71059 11.9898 8.53672 11.9898 8.33266C11.9898 8.12861 11.9179 7.95473 11.7742 7.81104C11.6305 7.66734 11.4567 7.5955 11.2526 7.5955C11.0485 7.5955 10.8747 7.66734 10.731 7.81104C10.5873 7.95473 10.5154 8.12861 10.5154 8.33266C10.5154 8.53672 10.5873 8.71059 10.731 8.85429C10.8747 8.99798 11.0485 9.06983 11.2526 9.06983ZM12.9193 7.40316C13.1233 7.40316 13.2972 7.33132 13.4409 7.18762C13.5846 7.04393 13.6564 6.87005 13.6564 6.666C13.6564 6.46194 13.5846 6.28806 13.4409 6.14437C13.2972 6.00068 13.1233 5.92883 12.9193 5.92883C12.7152 5.92883 12.5413 6.00068 12.3976 6.14437C12.254 6.28806 12.1821 6.46194 12.1821 6.666C12.1821 6.87005 12.254 7.04393 12.3976 7.18762C12.5413 7.33132 12.7152 7.40316 12.9193 7.40316ZM12.9193 10.7365C13.1233 10.7365 13.2972 10.6646 13.4409 10.521C13.5846 10.3773 13.6564 10.2034 13.6564 9.99933C13.6564 9.79527 13.5846 9.6214 13.4409 9.4777C13.2972 9.33401 13.1233 9.26216 12.9193 9.26216C12.7152 9.26216 12.5413 9.33401 12.3976 9.4777C12.254 9.6214 12.1821 9.79527 12.1821 9.99933C12.1821 10.2034 12.254 10.3773 12.3976 10.521C12.5413 10.6646 12.7152 10.7365 12.9193 10.7365ZM14.5859 9.06983C14.79 9.06983 14.9639 8.99798 15.1076 8.85429C15.2513 8.71059 15.3231 8.53672 15.3231 8.33266C15.3231 8.12861 15.2513 7.95473 15.1076 7.81104C14.9639 7.66734 14.79 7.5955 14.5859 7.5955C14.3819 7.5955 14.208 7.66734 14.0643 7.81104C13.9206 7.95473 13.8488 8.12861 13.8488 8.33266C13.8488 8.53672 13.9206 8.71059 14.0643 8.85429C14.208 8.99798 14.3819 9.06983 14.5859 9.06983ZM7.08556 10.2878C7.22896 10.2878 7.34768 10.2409 7.44171 10.147C7.53572 10.0532 7.58273 9.93451 7.58273 9.791V8.82945H8.54427C8.68778 8.82945 8.80646 8.78256 8.90029 8.68879C8.99414 8.59502 9.04106 8.47644 9.04106 8.33304C9.04106 8.18963 8.99414 8.07092 8.90029 7.97689C8.80646 7.88288 8.68778 7.83587 8.54427 7.83587H7.58273V6.87433C7.58273 6.73081 7.53584 6.61214 7.44206 6.51831C7.3483 6.42446 7.22971 6.37754 7.08631 6.37754C6.94291 6.37754 6.82419 6.42446 6.73017 6.51831C6.63615 6.61214 6.58915 6.73081 6.58915 6.87433V7.83587H5.6276C5.48409 7.83587 5.36542 7.88276 5.27158 7.97654C5.17774 8.0703 5.13081 8.18888 5.13081 8.33229C5.13081 8.47569 5.17774 8.59441 5.27158 8.68843C5.36542 8.78245 5.48409 8.82945 5.6276 8.82945H6.58915V9.791C6.58915 9.93451 6.63603 10.0532 6.72981 10.147C6.82358 10.2409 6.94216 10.2878 7.08556 10.2878Z" fill="white"/>
</svg>
